<svg width="40" height="40" viewBox="0 0 40 40" fill="none" xmlns="http://www.w3.org/2000/svg">
<path d="M13.3334 40.0001C17.0134 40.0001 20.0001 37.0134 20.0001 33.3334V26.6667H13.3334C9.65341 26.6667 6.66675 29.6534 6.66675 33.3334C6.66675 37.0134 9.65341 40.0001 13.3334 40.0001Z" fill="#0ACF83"/>
<path d="M6.66675 19.9999C6.66675 16.3199 9.65341 13.3333 13.3334 13.3333H20.0001V26.6666H13.3334C9.65341 26.6666 6.66675 23.6799 6.66675 19.9999Z" fill="#A259FF"/>
<path d="M6.66675 6.66667C6.66675 2.98667 9.65341 0 13.3334 0H20.0001V13.3333H13.3334C9.65341 13.3333 6.66675 10.3467 6.66675 6.66667Z" fill="#F24E1E"/>
<path d="M20 0H26.6667C30.3467 0 33.3333 2.98667 33.3333 6.66667C33.3333 10.3467 30.3467 13.3333 26.6667 13.3333H20V0Z" fill="#FF7262"/>
<path d="M33.3333 19.9999C33.3333 23.6799 30.3467 26.6666 26.6667 26.6666C22.9867 26.6666 20 23.6799 20 19.9999C20 16.3199 22.9867 13.3333 26.6667 13.3333C30.3467 13.3333 33.3333 16.3199 33.3333 19.9999Z" fill="#1ABCFE"/>
</svg>
