<svg width="40" height="41" viewBox="0 0 40 41" fill="none" xmlns="http://www.w3.org/2000/svg">
<path d="M23.0535 28.1135C23.3977 28.2716 23.7855 28.3077 24.153 28.2159C24.5205 28.1241 24.8457 27.9099 25.0752 27.6085L25.6668 26.8335C25.9773 26.4195 26.3799 26.0835 26.8428 25.8521C27.3056 25.6206 27.816 25.5002 28.3335 25.5002H33.3335C34.2176 25.5002 35.0654 25.8514 35.6905 26.4765C36.3156 27.1016 36.6668 27.9494 36.6668 28.8335V33.8335C36.6668 34.7176 36.3156 35.5654 35.6905 36.1905C35.0654 36.8156 34.2176 37.1668 33.3335 37.1668C25.377 37.1668 17.7464 34.0061 12.1203 28.38C6.4942 22.7539 3.3335 15.1233 3.3335 7.16683C3.3335 6.28277 3.68469 5.43493 4.30981 4.80981C4.93493 4.18469 5.78277 3.8335 6.66683 3.8335H11.6668C12.5509 3.8335 13.3987 4.18469 14.0239 4.80981C14.649 5.43493 15.0002 6.28277 15.0002 7.16683V12.1668C15.0002 12.6843 14.8797 13.1947 14.6483 13.6575C14.4168 14.1204 14.0808 14.523 13.6668 14.8335L12.8868 15.4185C12.5809 15.6521 12.3652 15.9845 12.2765 16.3591C12.1878 16.7337 12.2315 17.1275 12.4002 17.4735C14.678 22.0999 18.4242 25.8415 23.0535 28.1135Z" stroke="#F0F0F0" stroke-width="2" stroke-linecap="round" stroke-linejoin="round"/>
</svg>
