<svg width="40" height="41" viewBox="0 0 40 41" fill="none" xmlns="http://www.w3.org/2000/svg">
<path d="M26.6665 13.8335C29.3187 13.8335 31.8622 14.8871 33.7376 16.7624C35.6129 18.6378 36.6665 21.1813 36.6665 23.8335V35.5002H29.9998V23.8335C29.9998 22.9494 29.6486 22.1016 29.0235 21.4765C28.3984 20.8514 27.5506 20.5002 26.6665 20.5002C25.7824 20.5002 24.9346 20.8514 24.3095 21.4765C23.6844 22.1016 23.3332 22.9494 23.3332 23.8335V35.5002H16.6665V23.8335C16.6665 21.1813 17.7201 18.6378 19.5954 16.7624C21.4708 14.8871 24.0143 13.8335 26.6665 13.8335Z" stroke="#F0F0F0" stroke-width="2" stroke-linecap="round" stroke-linejoin="round"/>
<path d="M10.0002 15.5H3.3335V35.5H10.0002V15.5Z" stroke="#F0F0F0" stroke-width="2" stroke-linecap="round" stroke-linejoin="round"/>
<path d="M6.66683 10.5002C8.50778 10.5002 10.0002 9.00778 10.0002 7.16683C10.0002 5.32588 8.50778 3.8335 6.66683 3.8335C4.82588 3.8335 3.3335 5.32588 3.3335 7.16683C3.3335 9.00778 4.82588 10.5002 6.66683 10.5002Z" stroke="#F0F0F0" stroke-width="2" stroke-linecap="round" stroke-linejoin="round"/>
</svg>
