<svg width="40" height="41" viewBox="0 0 40 41" fill="none" xmlns="http://www.w3.org/2000/svg">
<path d="M25 37.1668V30.5002C25.2318 28.4123 24.6332 26.317 23.3333 24.6668C28.3333 24.6668 33.3333 21.3335 33.3333 15.5002C33.4667 13.4168 32.8833 11.3668 31.6666 9.66683C32.1333 7.75016 32.1333 5.75016 31.6666 3.8335C31.6666 3.8335 30 3.8335 26.6666 6.3335C22.2666 5.50016 17.7333 5.50016 13.3333 6.3335C9.99998 3.8335 8.33331 3.8335 8.33331 3.8335C7.83331 5.75016 7.83331 7.75016 8.33331 9.66683C7.11977 11.36 6.53077 13.4215 6.66665 15.5002C6.66665 21.3335 11.6666 24.6668 16.6666 24.6668C16.0166 25.4835 15.5333 26.4168 15.25 27.4168C14.9666 28.4168 14.8833 29.4668 15 30.5002V37.1668" stroke="#F0F0F0" stroke-width="2" stroke-linecap="round" stroke-linejoin="round"/>
<path d="M15.0002 30.4998C7.4835 33.8332 6.66683 27.1665 3.3335 27.1665" stroke="#F0F0F0" stroke-width="2" stroke-linecap="round" stroke-linejoin="round"/>
</svg>
